<svg xmlns="http://www.w3.org/2000/svg" viewBox="0 0 900 700" role="img" aria-labelledby="title desc">
  <title id="title">Cafeteria artesanal</title>
  <desc id="desc">Xicara de cafe com paes e graos em tons quentes.</desc>
  <rect width="900" height="700" rx="46" fill="#f5d6a5"/>
  <circle cx="750" cy="110" r="120" fill="#d8a261" opacity=".45"/>
  <circle cx="130" cy="595" r="170" fill="#8fa378" opacity=".38"/>
  <path d="M170 470c70-90 202-120 321-90 82 21 169 12 239-39 30-22 70 8 58 43-31 91-131 158-250 173-150 20-289-15-368-87Z" fill="#3d2418" opacity=".18"/>
  <ellipse cx="430" cy="430" rx="248" ry="86" fill="#fff8ec"/>
  <ellipse cx="430" cy="421" rx="190" ry="55" fill="#6f4633"/>
  <ellipse cx="430" cy="398" rx="142" ry="28" fill="#d5aa77"/>
  <path d="M617 383h70c54 0 82 66 45 105-31 33-86 33-119-1" fill="none" stroke="#fff8ec" stroke-width="38" stroke-linecap="round"/>
  <path d="M260 490h337c16 0 24 19 13 31-39 43-100 67-182 67-81 0-144-24-181-67-11-12-3-31 13-31Z" fill="#3d2418"/>
  <path d="M231 221c37-45 104-45 140 0l70 88H160l71-88Z" fill="#c47b43"/>
  <path d="M404 224c37-47 110-47 147 0l70 85H335l69-85Z" fill="#e6b66c"/>
  <path d="M579 228c32-41 95-41 127 0l61 81H518l61-81Z" fill="#b76a38"/>
  <g fill="#3d2418">
    <ellipse cx="155" cy="125" rx="31" ry="20" transform="rotate(-24 155 125)"/>
    <ellipse cx="220" cy="101" rx="31" ry="20" transform="rotate(19 220 101)"/>
    <ellipse cx="724" cy="575" rx="31" ry="20" transform="rotate(-18 724 575)"/>
    <ellipse cx="786" cy="536" rx="31" ry="20" transform="rotate(24 786 536)"/>
  </g>
  <path d="M305 134c-19 28-16 56 9 84M406 103c-23 37-18 74 15 109M516 129c-19 30-15 59 12 86" fill="none" stroke="#fff8ec" stroke-width="16" stroke-linecap="round" opacity=".9"/>
</svg>
