<svg xmlns="http://www.w3.org/2000/svg" viewBox="0 0 500 380" role="img" aria-labelledby="title desc">
  <title id="title">Cappuccino</title>
  <desc id="desc">Xicara de cappuccino cremoso.</desc>
  <rect width="500" height="380" rx="34" fill="#dbe7d0"/>
  <circle cx="395" cy="95" r="72" fill="#f0bf70" opacity=".45"/>
  <ellipse cx="242" cy="255" rx="155" ry="45" fill="#3d2418" opacity=".18"/>
  <path d="M111 142h238v86c0 66-54 120-120 120s-118-54-118-120v-86Z" fill="#fff8ec"/>
  <ellipse cx="230" cy="142" rx="119" ry="42" fill="#6f4633"/>
  <ellipse cx="230" cy="130" rx="82" ry="22" fill="#e8c59a"/>
  <path d="M349 170h45c33 0 51 40 28 65-19 21-54 20-75-1" fill="none" stroke="#fff8ec" stroke-width="28" stroke-linecap="round"/>
  <path d="M175 91c-16 24-12 48 10 70M238 72c-18 28-14 59 12 87M302 92c-15 22-11 45 9 65" fill="none" stroke="#3d2418" stroke-width="10" stroke-linecap="round" opacity=".55"/>
</svg>
