<svg xmlns="http://www.w3.org/2000/svg" viewBox="0 0 640 480" role="img" aria-labelledby="title desc">
  <title id="title">Graos de cafe</title>
  <desc id="desc">Graos de cafe torrados sobre fundo verde.</desc>
  <rect width="640" height="480" fill="#dbe7d0"/>
  <g fill="#3d2418">
    <ellipse cx="137" cy="135" rx="68" ry="42" transform="rotate(-26 137 135)"/>
    <ellipse cx="303" cy="118" rx="72" ry="45" transform="rotate(20 303 118)"/>
    <ellipse cx="488" cy="148" rx="68" ry="43" transform="rotate(-18 488 148)"/>
    <ellipse cx="212" cy="307" rx="74" ry="47" transform="rotate(17 212 307)"/>
    <ellipse cx="408" cy="323" rx="77" ry="48" transform="rotate(-25 408 323)"/>
  </g>
  <g fill="none" stroke="#c47b43" stroke-width="10" stroke-linecap="round" opacity=".8">
    <path d="M120 102c26 19 38 43 37 72"/>
    <path d="M284 75c15 32 16 61 3 88"/>
    <path d="M471 114c28 19 40 44 38 73"/>
    <path d="M188 269c27 20 39 46 37 78"/>
    <path d="M392 284c31 18 43 43 36 76"/>
  </g>
</svg>
